<?xml version="1.0" encoding="UTF-8"?>
<svg id="_图层_1" data-name="图层_1" xmlns="http://www.w3.org/2000/svg" xmlns:xlink="http://www.w3.org/1999/xlink" version="1.1" viewBox="0 0 595.28 595.28">
  <!-- Generator: Adobe Illustrator 30.0.0, SVG Export Plug-In . SVG Version: 2.1.1 Build 123)  -->
  <defs>
    <style>
      .st0 {
        fill: url(#_未命名的渐变_2);
      }

      .st1 {
        fill: #fff;
      }
    </style>
    <linearGradient id="_未命名的渐变_2" data-name="未命名的渐变 2" x1="-956.18" y1="-1312.48" x2="-956" y2="-1493.19" gradientTransform="translate(3328.82 4747.59) scale(3.17)" gradientUnits="userSpaceOnUse">
      <stop offset="0" stop-color="#f0831a"/>
      <stop offset="1" stop-color="#f5b417"/>
    </linearGradient>
  </defs>
  <path class="st0" d="M140.11,6.5h315.05c74.02,0,133.62,59.59,133.62,133.62v315.05c0,74.03-59.59,133.62-133.62,133.62H140.11c-74.02,0-133.62-59.59-133.62-133.62V140.11C6.5,66.09,66.09,6.5,140.11,6.5h0Z"/>
  <path class="st1" d="M157.96,447.13c9.42-6.29,17.51-11.79,17.97-12.23.73-.7-.21-1.85-7.38-9.04-4.52-4.53-8.65-8.24-9.16-8.24-.92,0-23.19,32.98-24.38,36.1-1.1,2.91,1.15,5.67,4.19,5.13.9-.16,9.34-5.43,18.76-11.72h0ZM190.22,425.81c15.25-10.18,24.32-17.45,45.79-36.68,31.56-28.27,103.14-96.48,103.14-98.28,0-1.15-35.26-36.43-36.41-36.43-1.44,0-57.76,58.75-86.15,89.86-19.02,20.85-28.41,31.61-35.19,40.34-8.26,10.63-19.09,26.51-19.09,27.98,0,1.08,17.73,18.67,18.82,18.67.51,0,4.6-2.46,9.1-5.46h0ZM377.59,297.41c1.59-1.59,1.93-2.36,1.93-4.34,0-1.32-.3-3.4-.66-4.61-.89-2.97-.03-5.69,3.18-10.04,3.39-4.61,6.89-8.36,31.36-33.72,32.68-33.85,52.31-54.85,61.34-65.58,4.75-5.65,6.82-10.35,6.8-15.4-.02-3.96-.1-4.23-3.34-10.41-1.26-2.4-.84-4.71,1.44-8.07,8.35-12.32,8.74-23.77,1.09-32.07-6.76-7.34-18.2-8-28.83-1.68-3.44,2.05-17.53,14.27-34.27,29.72-36.9,34.07-110.9,107.02-110.9,109.32,0,1.07,35.34,36.3,36.41,36.3.48,0,15.61-14.78,33.61-32.84,33.85-33.96,49.66-50.26,69.07-71.21,16.72-18.05,16.85-18.18,18.42-18.34,1.17-.12,1.45.13,1.6,1.39.23,2.03-.32,2.97-5.22,8.85-9.37,11.25-26,28.88-62.6,66.39-12.21,12.51-23.55,24.54-25.2,26.73-3.81,5.06-7.23,11.81-8.12,16.03-1.68,8,2.67,15.46,9.05,15.51,1.42,0,2.4-.48,3.84-1.92h0ZM133.37,464.36c-3.97,0-7.16,3.54-7.16,7.92s3.19,7.89,7.16,7.89h453.23l.49-3.69.65-4.11.45-3.92.23-4.08H133.37Z"/>
</svg>